<?xml version="1.0" encoding="utf-8"?>
<!-- Generator: Adobe Illustrator 18.1.1, SVG Export Plug-In . SVG Version: 6.00 Build 0)  -->
<svg version="1.1"
	 id="svg6177" xmlns:sodipodi="http://sodipodi.sourceforge.net/DTD/sodipodi-0.dtd" xmlns:dc="http://purl.org/dc/elements/1.1/" xmlns:inkscape="http://www.inkscape.org/namespaces/inkscape" xmlns:svg="http://www.w3.org/2000/svg" xmlns:rdf="http://www.w3.org/1999/02/22-rdf-syntax-ns#" xmlns:cc="http://creativecommons.org/ns#" sodipodi:docname="Person.svg" inkscape:version="0.48.4 r9939"
	 xmlns="http://www.w3.org/2000/svg" xmlns:xlink="http://www.w3.org/1999/xlink" x="0px" y="0px" viewBox="-372 141.9 194.4 279.1"
	 enable-background="new -372 141.9 194.4 279.1" xml:space="preserve">
<g>
	<path id="person" inkscape:connector-curvature="0" fill="#241F21" d="M-184.7,243.7l-81.5-33.1c14.9-4,26-17.5,26-33.7
		c0-19.3-15.6-34.9-34.9-34.9c-19.3,0-34.9,15.6-34.9,34.9c0,16.4,11.3,30.1,26.4,33.8l-12.8,5.2c-0.3,0.1-0.6,0.2-0.9,0.4
		l-67.4,27.4c-5.9,2.4-8.7,9.1-6.3,15c2.4,5.9,9.1,8.7,15,6.3l41.4-16.8v83.5h4.7v77.9c0,6.3,5.1,11.5,11.5,11.5
		c6.3,0,11.5-5.1,11.5-11.5v-77.9h24v77.9c0,6.3,5.1,11.5,11.5,11.5c6.3,0,11.5-5.1,11.5-11.5v-77.9h4.7v-83.9l42.2,17.1
		c5.9,2.4,12.6-0.4,15-6.3C-176,252.7-178.8,246-184.7,243.7"/>
	<path id="heart" inkscape:connector-curvature="0" fill="#606060" stroke="#FE739B" stroke-miterlimit="10" d="M-275,242
		c3.7-5.6,7.2-8.5,14.4-8.5c8,0,14.4,5,14.4,11.2c0,11.2-14.4,22.6-28.8,33.8c-14.4-11.2-28.8-22.6-28.8-33.8
		c0-6.2,6.4-11.2,14.4-11.2C-282.2,233.5-278.5,236.4-275,242"/>
	<text transform="matrix(1 0 0 1 -300.6307 255.9988)" fill="#00FFCF" font-family="'CourierNewPS-BoldMT'" font-size="21">&lt;Co&gt;</text>
</g>
</svg>
