<?xml version="1.0" encoding="utf-8"?>
<!-- Generator: Adobe Illustrator 18.1.1, SVG Export Plug-In . SVG Version: 6.00 Build 0)  -->
<svg version="1.1"
	 id="svg7187" xmlns:inkscape="http://www.inkscape.org/namespaces/inkscape" xmlns:sodipodi="http://sodipodi.sourceforge.net/DTD/sodipodi-0.dtd" xmlns:svg="http://www.w3.org/2000/svg" xmlns:rdf="http://www.w3.org/1999/02/22-rdf-syntax-ns#" xmlns:cc="http://creativecommons.org/ns#" xmlns:dc="http://purl.org/dc/elements/1.1/" sodipodi:docname="Electronics_A012.svg" inkscape:version="0.48.4 r9939"
	 xmlns="http://www.w3.org/2000/svg" xmlns:xlink="http://www.w3.org/1999/xlink" x="0px" y="0px" viewBox="582.8 -73 376.4 314"
	 enable-background="new 582.8 -73 376.4 314" xml:space="preserve">
<sodipodi:namedview  pagecolor="#ffffff" bordercolor="#666666" borderopacity="1.0" inkscape:zoom="1" inkscape:cx="333.25629" inkscape:cy="225.10567" showgrid="false" units="in" fit-margin-top="1" fit-margin-left="1" id="base" fit-margin-bottom="1" fit-margin-right="1" inkscape:window-maximized="1" inkscape:current-layer="layer1" inkscape:pageshadow="2" inkscape:pageopacity="0.0" inkscape:document-units="px" inkscape:window-x="0" inkscape:window-height="1172" inkscape:window-width="1920" inkscape:window-y="0">
	</sodipodi:namedview>
<rect x="345.7" y="-1579.2" fill="none" width="2231.2" height="2887.4"/>
<g>
	<path id="path4422" inkscape:connector-curvature="0" fill="#241F21" d="M899.9,112.4H642.1V-73h257.8L899.9,112.4L899.9,112.4z"/>
	<path id="path4434" inkscape:connector-curvature="0" fill="#241F21" d="M958.3,229.7l-51.6-97.8c-1.3-2.5-4-4.1-6.8-4.1H642.1
		c-2.9,0-5.5,1.6-6.8,4.1l-51.6,97.8c-1.3,2.4-1.2,5.3,0.2,7.6c1.4,2.3,3.9,3.7,6.6,3.7h360.9c2.7,0,5.2-1.4,6.6-3.7
		C959.5,234.9,959.6,232.1,958.3,229.7"/>
	<path id="path4438" inkscape:connector-curvature="0" fill="#FFFFFF" d="M826,219H716l10.5-29.8h88.9L826,219z"/>
	<path id="path4452" inkscape:connector-curvature="0" fill="#FFFFFF" d="M881,91.8H661V-52.4h220V91.8z"/>
	<g>
		<g>
			
				<line fill="none" stroke="#FF6699" stroke-width="6" stroke-linecap="round" stroke-miterlimit="10" x1="771" y1="32.4" x2="771" y2="-30.1"/>
			<g>
				<polygon fill="#FF6699" points="781.2,20.4 771,30.6 760.9,20.4 760.9,29.1 771,39.3 781.2,29.1 				"/>
			</g>
		</g>
	</g>
	
		<polyline fill="none" stroke="#FF6699" stroke-width="6" stroke-linecap="round" stroke-linejoin="round" stroke-miterlimit="10" points="
		700.8,24.7 700.8,57.3 838.8,57.3 839.8,24.7 	"/>
</g>
</svg>
