<?xml version="1.0" encoding="utf-8"?>
<!-- Generator: Adobe Illustrator 18.1.1, SVG Export Plug-In . SVG Version: 6.00 Build 0)  -->
<svg version="1.1"
	 id="svg7187" xmlns:sodipodi="http://sodipodi.sourceforge.net/DTD/sodipodi-0.dtd" xmlns:svg="http://www.w3.org/2000/svg" xmlns:rdf="http://www.w3.org/1999/02/22-rdf-syntax-ns#" xmlns:inkscape="http://www.inkscape.org/namespaces/inkscape" xmlns:dc="http://purl.org/dc/elements/1.1/" xmlns:cc="http://creativecommons.org/ns#" inkscape:version="0.48.4 r9939" sodipodi:docname="Electronics_A012.svg"
	 xmlns="http://www.w3.org/2000/svg" xmlns:xlink="http://www.w3.org/1999/xlink" x="0px" y="0px" viewBox="1863.7 251 671.3 560"
	 enable-background="new 1863.7 251 671.3 560" xml:space="preserve">
<g>
	<path id="path4422" inkscape:connector-curvature="0" fill="#241F21" d="M2429.2,581.6h-459.8V251h459.8V581.6L2429.2,581.6z"/>
	<path id="path4434" inkscape:connector-curvature="0" fill="#241F21" d="M2533.4,790.8l-92-174.4c-2.3-4.5-7.1-7.3-12.1-7.3h-459.8
		c-5.2,0-9.8,2.9-12.1,7.3l-92,174.4c-2.3,4.3-2.1,9.5,0.4,13.6c2.5,4.1,7,6.6,11.8,6.6h643.6c4.8,0,9.3-2.5,11.8-6.6
		C2535.5,800.1,2535.7,795.1,2533.4,790.8"/>
	<path id="path4438" inkscape:connector-curvature="0" fill="#FFFFFF" d="M2297.4,771.8h-196.2l18.7-53.1h158.5L2297.4,771.8z"/>
	<path id="path4452" inkscape:connector-curvature="0" fill="#FFFFFF" d="M2395.5,544.9h-392.4V287.7h392.4V544.9z"/>
	
		<line fill="none" stroke="#FF6699" stroke-width="6" stroke-linecap="round" stroke-miterlimit="10" x1="2199.3" y1="439" x2="2199.3" y2="327.5"/>
	<polygon fill="#FF6699" points="2217.5,417.6 2199.3,435.8 2181.3,417.6 2181.3,433.1 2199.3,451.3 2217.5,433.1 	"/>
	
		<polyline fill="none" stroke="#FF6699" stroke-width="6" stroke-linecap="round" stroke-linejoin="round" stroke-miterlimit="10" points="
		2074.1,425.2 2074.1,483.4 2320.2,483.4 2322,425.2 	"/>
</g>
</svg>
