<?xml version="1.0" encoding="UTF-8" standalone="no"?>
<!-- Created with Inkscape (http://www.inkscape.org/) -->

<svg
   xmlns:dc="http://purl.org/dc/elements/1.1/"
   xmlns:cc="http://creativecommons.org/ns#"
   xmlns:rdf="http://www.w3.org/1999/02/22-rdf-syntax-ns#"
   xmlns:svg="http://www.w3.org/2000/svg"
   xmlns="http://www.w3.org/2000/svg"
   xmlns:sodipodi="http://sodipodi.sourceforge.net/DTD/sodipodi-0.dtd"
   xmlns:inkscape="http://www.inkscape.org/namespaces/inkscape"
   width="744.09448819"
   height="1052.3622047"
   id="svg3001"
   version="1.1"
   inkscape:version="0.48.3.1 r9886"
   sodipodi:docname="New document 2">
  <defs
     id="defs3003" />
  <sodipodi:namedview
     id="base"
     pagecolor="#ffffff"
     bordercolor="#666666"
     borderopacity="1.0"
     inkscape:pageopacity="0.0"
     inkscape:pageshadow="2"
     inkscape:zoom="0.35"
     inkscape:cx="375"
     inkscape:cy="520"
     inkscape:document-units="px"
     inkscape:current-layer="layer1"
     showgrid="false"
     inkscape:window-width="513"
     inkscape:window-height="432"
     inkscape:window-x="2"
     inkscape:window-y="83"
     inkscape:window-maximized="0" />
  <metadata
     id="metadata3006">
    <rdf:RDF>
      <cc:Work
         rdf:about="">
        <dc:format>image/svg+xml</dc:format>
        <dc:type
           rdf:resource="http://purl.org/dc/dcmitype/StillImage" />
        <dc:title></dc:title>
      </cc:Work>
    </rdf:RDF>
  </metadata>
  <g
     inkscape:label="Layer 1"
     inkscape:groupmode="layer"
     id="layer1">
    <g
       id="g3022">
      <path
         d="m 429.80439,498.1027 c 0,95.41294 -77.20986,172.6226 -172.60505,172.6226 -95.32535,0 -172.710174,-77.20966 -172.710174,-172.6226 0,-95.29005 77.384824,-172.67506 172.710174,-172.67506 95.39519,0 172.60505,77.38501 172.60505,172.67506 z"
         style="fill:none;stroke:#ff6699;stroke-width:51.50978851;stroke-linecap:butt;stroke-linejoin:miter;stroke-miterlimit:10;stroke-opacity:1;stroke-dasharray:none"
         id="path36"
         inkscape:connector-curvature="0" />
      <path
         d="m 258.4813,585.8929 -40.03025,0 c -25.55643,0 -43.92153,-3.53714 -55.07939,-10.62897 -11.16855,-7.09344 -16.76574,-20.98108 -16.76574,-41.60359 l 0,-76.08672 c 0,-20.64006 5.39701,-34.50793 16.18459,-41.60137 10.79101,-7.09345 27.63464,-10.65138 50.55349,-10.65138 l 45.1373,0 c 12.31169,0 20.58014,3.17655 24.84957,9.51209 4.2561,6.35307 6.38194,14.70791 6.38194,25.11753 0,8.52997 -3.40719,12.80605 -10.21914,12.80605 -2.64665,0 -5.01422,-0.96051 -7.10455,-2.83733 -2.077,-1.89479 -3.11681,-5.03421 -3.11681,-9.38999 0,-5.67488 -0.85961,-9.55203 -2.55584,-11.62903 -1.69905,-2.07943 -5.11836,-3.13882 -10.22358,-3.13882 l -43.14889,0 c -18.36169,0 -30.66972,1.89883 -36.92495,5.67691 -6.23282,3.79501 -9.37163,12.68639 -9.37163,26.69389 l 0,74.94723 c 0,14.20948 3.31639,23.16039 9.95257,26.85795 6.61037,3.67738 20.4389,5.51587 41.45106,5.51587 l 38.04184,0 c 5.10522,0 8.52331,-1.02105 10.22358,-3.09744 1.69501,-2.07923 2.55584,-5.97656 2.55584,-11.67061 0,-4.33399 1.03921,-7.45041 3.11681,-9.35287 2.09033,-1.89477 4.4579,-2.83491 7.10455,-2.83491 6.81195,0 10.21914,4.35801 10.21914,13.06576 0,10.41326 -2.12584,18.74427 -6.38194,24.9779 -4.26943,6.25259 -12.53788,9.35185 -24.84957,9.35185"
         style="fill:#ffffff;fill-opacity:1;fill-rule:nonzero;stroke:none"
         id="path38"
         inkscape:connector-curvature="0" />
      <path
         d="m 258.4813,585.8929 -40.03025,0 c -25.55643,0 -43.92153,-3.53714 -55.07939,-10.62897 -11.16855,-7.09344 -16.76574,-20.98108 -16.76574,-41.60359 l 0,-76.08672 c 0,-20.64006 5.39701,-34.50793 16.18459,-41.60137 10.79101,-7.09345 27.63464,-10.65138 50.55349,-10.65138 l 45.1373,0 c 12.31169,0 20.58014,3.17655 24.84957,9.51209 4.2561,6.35307 6.38194,14.70791 6.38194,25.11753 0,8.52997 -3.40719,12.80605 -10.21914,12.80605 -2.64665,0 -5.01422,-0.96051 -7.10455,-2.83733 -2.077,-1.89479 -3.11681,-5.03421 -3.11681,-9.38999 0,-5.67488 -0.85961,-9.55203 -2.55584,-11.62903 -1.69905,-2.07943 -5.11836,-3.13882 -10.22358,-3.13882 l -43.14889,0 c -18.36169,0 -30.66972,1.89883 -36.92495,5.67691 -6.23282,3.79501 -9.37163,12.68639 -9.37163,26.69389 l 0,74.94723 c 0,14.20948 3.31639,23.16039 9.95257,26.85795 6.61037,3.67738 20.4389,5.51587 41.45106,5.51587 l 38.04184,0 c 5.10522,0 8.52331,-1.02105 10.22358,-3.09744 1.69501,-2.07923 2.55584,-5.97656 2.55584,-11.67061 0,-4.33399 1.03921,-7.45041 3.11681,-9.35287 2.09033,-1.89477 4.4579,-2.83491 7.10455,-2.83491 6.81195,0 10.21914,4.35801 10.21914,13.06576 0,10.41326 -2.12584,18.74427 -6.38194,24.9779 -4.26943,6.25259 -12.53788,9.35185 -24.84957,9.35185 z"
         style="fill:#000000;stroke:#000000;stroke-width:10.23041057999999914;stroke-linecap:butt;stroke-linejoin:miter;stroke-miterlimit:4;stroke-opacity:1;stroke-dasharray:none"
         id="path40"
         inkscape:connector-curvature="0" />
      <path
         d="m 379.64116,496.80501 c 0,19.06269 -15.42406,34.50793 -34.48776,34.50793 -19.06168,0 -34.51459,-15.44524 -34.51459,-34.50793 0,-19.08146 15.45291,-34.50773 34.51459,-34.50773 19.0637,0 34.48776,15.42627 34.48776,34.50773 z"
         style="fill:none;stroke:#000000;stroke-width:25.57613372999999868;stroke-linecap:butt;stroke-linejoin:miter;stroke-miterlimit:10;stroke-opacity:1;stroke-dasharray:none"
         id="path44"
         inkscape:connector-curvature="0" />
    </g>
  </g>
</svg>
